<svg width="77" height="80" viewBox="0 0 77 80" fill="none" xmlns="http://www.w3.org/2000/svg">
<path d="M76.5 40C76.5 61.8334 59.469 79.5 38.5 79.5C17.531 79.5 0.5 61.8334 0.5 40C0.5 18.1666 17.531 0.5 38.5 0.5C59.469 0.5 76.5 18.1666 76.5 40Z" fill="white" stroke="#75DDDD"/>
<g clip-path="url(#clip0)">
<path d="M42.0291 31.3333C43.4408 31.3333 44.5958 30.1333 44.5958 28.6667C44.5958 27.2 43.4408 26 42.0291 26C40.6175 26 39.4625 27.2 39.4625 28.6667C39.4625 30.1333 40.6175 31.3333 42.0291 31.3333ZM28.5541 40C24.9608 40 22.1375 42.9333 22.1375 46.6667C22.1375 50.4 24.9608 53.3333 28.5541 53.3333C32.1475 53.3333 34.9708 50.4 34.9708 46.6667C34.9708 42.9333 32.1475 40 28.5541 40ZM28.5541 51.3333C26.1158 51.3333 24.0625 49.2 24.0625 46.6667C24.0625 44.1333 26.1158 42 28.5541 42C30.9925 42 33.0458 44.1333 33.0458 46.6667C33.0458 49.2 30.9925 51.3333 28.5541 51.3333ZM35.9975 38L39.0774 34.8L40.1041 35.8667C41.7725 37.6 43.9541 38.6667 46.6491 38.6667V36C44.7241 36 43.1841 35.2 42.0291 34L39.5908 31.4667C38.9491 30.9333 38.3075 30.6667 37.5375 30.6667C36.7675 30.6667 36.1258 30.9333 35.7408 31.4667L32.1475 35.2C31.6341 35.7333 31.3775 36.4 31.3775 37.0667C31.3775 37.8667 31.6341 38.5333 32.1475 38.9333L36.2541 42.6667V49.3333H38.8208V41.0667L35.9975 38ZM46.5208 40C42.9275 40 40.1041 42.9333 40.1041 46.6667C40.1041 50.4 42.9275 53.3333 46.5208 53.3333C50.1141 53.3333 52.9375 50.4 52.9375 46.6667C52.9375 42.9333 50.1141 40 46.5208 40ZM46.5208 51.3333C44.0825 51.3333 42.0291 49.2 42.0291 46.6667C42.0291 44.1333 44.0825 42 46.5208 42C48.9591 42 51.0125 44.1333 51.0125 46.6667C51.0125 49.2 48.9591 51.3333 46.5208 51.3333Z" fill="#75DDDD"/>
</g>
<defs>
<clipPath id="clip0">
<rect width="30.8" height="32" fill="white" transform="translate(22.1375 24)"/>
</clipPath>
</defs>
</svg>
