<svg width="80" height="80" viewBox="0 0 80 80" fill="none" xmlns="http://www.w3.org/2000/svg">
<circle cx="40" cy="40" r="39.5" stroke="#75DDDD"/>
<path d="M53.1875 24H26.8125C25.2617 24 24 25.2617 24 26.8125V53.1875C24 54.7383 25.2617 56 26.8125 56H53.1875C54.7383 56 56 54.7383 56 53.1875V26.8125C56 25.2617 54.7383 24 53.1875 24ZM54.125 53.1875C54.125 53.7043 53.7043 54.125 53.1875 54.125H26.8125C26.2957 54.125 25.875 53.7043 25.875 53.1875V26.8125C25.875 26.2957 26.2957 25.875 26.8125 25.875H53.1875C53.7043 25.875 54.125 26.2957 54.125 26.8125V53.1875Z" fill="#75DDDD"/>
<path d="M50.8123 31.4783C47.6692 29.1211 43.9302 27.875 39.9998 27.875C36.0694 27.875 32.3303 29.1211 29.1873 31.4783C28.9883 31.6277 28.8567 31.8499 28.8216 32.0962C28.7866 32.3425 28.8509 32.5928 29.0003 32.7917L33.9492 39.3757C34.1336 39.6208 34.4148 39.75 34.6995 39.75C34.895 39.75 35.0926 39.689 35.2613 39.5625C36.6387 38.5295 38.2771 37.9834 39.9998 37.9834C41.7222 37.9834 43.3609 38.5295 44.7383 39.5625C45.1521 39.873 45.7393 39.7893 46.0501 39.3757L50.999 32.7917C51.1487 32.5928 51.2129 32.3425 51.1778 32.0962C51.1428 31.8501 51.0113 31.6277 50.8123 31.4783ZM45.0877 37.5356C43.823 36.7617 42.4138 36.293 40.9373 36.1533V33.2959C40.9373 32.7781 40.5176 32.3584 39.9998 32.3584C39.482 32.3584 39.0623 32.7781 39.0623 33.2959V36.1533C37.5857 36.293 36.1765 36.7617 34.9119 37.5356L31.0791 32.4365C33.7278 30.676 36.7927 29.75 39.9998 29.75C43.2068 29.75 46.2718 30.676 48.9204 32.4365L45.0877 37.5356Z" fill="#75DDDD"/>
</svg>
