<svg width="80" height="80" viewBox="0 0 80 80" fill="none" xmlns="http://www.w3.org/2000/svg">
<circle cx="40" cy="40" r="39.5" stroke="#F44336"/>
<path d="M51.7867 30.1467C51.1057 29.4653 50.2971 28.9249 49.4071 28.5561C48.5172 28.1874 47.5633 27.9976 46.6 27.9976C45.6367 27.9976 44.6828 28.1874 43.7929 28.5561C42.9029 28.9249 42.0943 29.4653 41.4133 30.1467L40 31.56L38.5867 30.1467C37.2111 28.7711 35.3454 27.9983 33.4 27.9983C31.4546 27.9983 29.5889 28.7711 28.2133 30.1467C26.8377 31.5222 26.0649 33.3879 26.0649 35.3333C26.0649 37.2787 26.8377 39.1444 28.2133 40.52L29.6267 41.9333L40 52.3067L50.3733 41.9333L51.7867 40.52C52.468 39.839 53.0085 39.0304 53.3772 38.1405C53.746 37.2505 53.9358 36.2966 53.9358 35.3333C53.9358 34.37 53.746 33.4161 53.3772 32.5262C53.0085 31.6362 52.468 30.8277 51.7867 30.1467V30.1467Z" stroke="#F44336" stroke-width="2" stroke-linecap="round" stroke-linejoin="round"/>
</svg>
