<svg width="90" height="62" viewBox="0 0 90 62" fill="none" xmlns="http://www.w3.org/2000/svg">
<path d="M6.18397 28.9367H12.9894V32.24H2.0415V11.4676H6.18397V28.9367ZM20.6821 13.7888C19.9522 13.7888 19.3407 13.5607 18.8476 13.1044C18.3742 12.6282 18.1374 12.0429 18.1374 11.3485C18.1374 10.6541 18.3742 10.0788 18.8476 9.62244C19.3407 9.14628 19.9522 8.9082 20.6821 8.9082C21.412 8.9082 22.0136 9.14628 22.487 9.62244C22.9802 10.0788 23.2268 10.6541 23.2268 11.3485C23.2268 12.0429 22.9802 12.6282 22.487 13.1044C22.0136 13.5607 21.412 13.7888 20.6821 13.7888ZM22.7237 15.753V32.24H18.5813V15.753H22.7237ZM37.291 19.1754H34.4209V32.24H30.2193V19.1754H28.3552V15.753H30.2193V14.9197C30.2193 12.896 30.7913 11.408 31.9354 10.4557C33.0795 9.5034 34.8056 9.057 37.1135 9.11652V12.6282C36.1075 12.6084 35.4072 12.777 35.0127 13.1341C34.6182 13.4912 34.4209 14.136 34.4209 15.0685V15.753H37.291V19.1754ZM58.1729 23.6394C58.1729 24.2346 58.1334 24.7703 58.0545 25.2464H46.071C46.1696 26.4368 46.5839 27.3693 47.3137 28.0439C48.0436 28.7184 48.9411 29.0557 50.0063 29.0557C51.545 29.0557 52.6398 28.3911 53.2907 27.0618H57.7587C57.2852 28.649 56.3778 29.9584 55.0365 30.9901C53.6951 32.002 52.048 32.5079 50.0951 32.5079C48.517 32.5079 47.0967 32.1607 45.8343 31.4663C44.5915 30.752 43.6151 29.7501 42.905 28.4605C42.2145 27.1709 41.8693 25.6829 41.8693 23.9965C41.8693 22.2903 42.2145 20.7924 42.905 19.5028C43.5954 18.2132 44.5619 17.2212 45.8047 16.5268C47.0474 15.8324 48.4776 15.4852 50.0951 15.4852C51.6535 15.4852 53.0441 15.8224 54.2671 16.497C55.5099 17.1716 56.4666 18.1338 57.1373 19.3837C57.8277 20.6138 58.1729 22.0324 58.1729 23.6394ZM53.8825 22.449C53.8628 21.3776 53.4781 20.5245 52.7285 19.8896C51.9789 19.2349 51.0617 18.9076 49.9767 18.9076C48.951 18.9076 48.083 19.225 47.3729 19.8599C46.6825 20.4749 46.2584 21.338 46.1006 22.449H53.8825Z" fill="#09BC8A"/>
<path d="M12.7827 40.7117V54.56H10.0211V48.6675H4.12297V54.56H1.36133V40.7117H4.12297V46.4058H10.0211V40.7117H12.7827ZM27.6325 48.8263C27.6325 49.2231 27.6061 49.5802 27.5535 49.8976H19.5645C19.6302 50.6912 19.9064 51.3128 20.393 51.7626C20.8795 52.2123 21.4779 52.4371 22.1881 52.4371C23.2138 52.4371 23.9437 51.9941 24.3777 51.1079H27.3563C27.0407 52.166 26.4357 53.0389 25.5415 53.7267C24.6472 54.4013 23.5492 54.7386 22.2472 54.7386C21.1951 54.7386 20.2483 54.5071 19.4067 54.0442C18.5782 53.568 17.9272 52.9 17.4538 52.0403C16.9935 51.1806 16.7634 50.1887 16.7634 49.0643C16.7634 47.9269 16.9935 46.9282 17.4538 46.0685C17.9141 45.2088 18.5585 44.5474 19.387 44.0845C20.2155 43.6216 21.1688 43.3901 22.2472 43.3901C23.2861 43.3901 24.2132 43.6149 25.0286 44.0647C25.8571 44.5144 26.4949 45.1559 26.942 45.9891C27.4023 46.8092 27.6325 47.7549 27.6325 48.8263ZM24.7722 48.0327C24.759 47.3184 24.5025 46.7496 24.0029 46.3264C23.5031 45.8899 22.8916 45.6717 22.1683 45.6717C21.4845 45.6717 20.9059 45.8834 20.4325 46.3066C19.9721 46.7167 19.6894 47.292 19.5842 48.0327H24.7722ZM30.9107 49.0247C30.9107 47.9136 31.1277 46.9282 31.5616 46.0685C32.0087 45.2088 32.6071 44.5474 33.3567 44.0845C34.1194 43.6216 34.9676 43.3901 35.9014 43.3901C36.7167 43.3901 37.4268 43.5554 38.0318 43.8861C38.6498 44.2168 39.143 44.6334 39.5112 45.136V43.5687H42.2926V54.56H39.5112V52.953C39.1562 53.4688 38.663 53.8987 38.0318 54.2426C37.4136 54.5733 36.6969 54.7386 35.8816 54.7386C34.961 54.7386 34.1194 54.5005 33.3567 54.0243C32.6071 53.5482 32.0087 52.8802 31.5616 52.0205C31.1277 51.1475 30.9107 50.149 30.9107 49.0247ZM39.5112 49.0643C39.5112 48.3898 39.3797 47.8144 39.1167 47.3383C38.8536 46.8488 38.4985 46.4786 38.0515 46.2272C37.6043 45.9627 37.1244 45.8304 36.6115 45.8304C36.0986 45.8304 35.6252 45.956 35.1912 46.2074C34.7572 46.4587 34.4022 46.829 34.126 47.3184C33.8629 47.7946 33.7315 48.3634 33.7315 49.0247C33.7315 49.686 33.8629 50.268 34.126 50.7706C34.4022 51.26 34.7572 51.637 35.1912 51.9015C35.6383 52.166 36.1117 52.2983 36.6115 52.2983C37.1244 52.2983 37.6043 52.1727 38.0515 51.9213C38.4985 51.6568 38.8536 51.2864 39.1167 50.8103C39.3797 50.3208 39.5112 49.7389 39.5112 49.0643ZM49.724 39.8784V54.56H46.9624V39.8784H49.724ZM57.6404 45.8503V51.1674C57.6404 51.5378 57.726 51.8088 57.8969 51.9808C58.0811 52.1395 58.3835 52.2189 58.8043 52.2189H60.0865V54.56H58.3506C56.0229 54.56 54.8591 53.4226 54.8591 51.1475V45.8503H53.5571V43.5687H54.8591V40.8506H57.6404V43.5687H60.0865V45.8503H57.6404ZM70.2 43.4099C71.0285 43.4099 71.7649 43.5951 72.4093 43.9655C73.0536 44.3226 73.5534 44.8583 73.9085 45.5725C74.2766 46.2735 74.4608 47.12 74.4608 48.112V54.56H71.6992V48.489C71.6992 47.616 71.4822 46.948 71.0482 46.4851C70.6142 46.009 70.0225 45.7709 69.2729 45.7709C68.5101 45.7709 67.9051 46.009 67.4581 46.4851C67.0241 46.948 66.8071 47.616 66.8071 48.489V54.56H64.0455V39.8784H66.8071V44.9376C67.1622 44.4615 67.6356 44.0911 68.2274 43.8266C68.8192 43.5488 69.4767 43.4099 70.2 43.4099ZM89.5144 43.5687L82.7483 59.7581H79.8092L82.1763 54.2823L77.7971 43.5687H80.8941L83.7149 51.2467L86.5752 43.5687H89.5144Z" fill="#508991"/>
</svg>
